<svg width="176" height="66" viewBox="0 0 176 66" fill="none" xmlns="http://www.w3.org/2000/svg">
<path d="M113.678 66L140.394 0H122.684L104.411 42.6491L91.4134 0H77.7975L63.8481 42.6491L54.0066 23.2169L45.1034 50.5312L54.1441 66H71.5722L84.1809 27.7509L96.2122 66H113.678ZM16.7716 43.3434H27.6513C30.6238 43.3852 33.5877 43.0138 36.4581 42.24L39.27 33.5809L47.135 9.38438C46.5282 8.4292 45.838 7.52964 45.0725 6.69625C41.0437 2.23208 35.1393 0 27.3591 0H0V66H16.7716V43.3434ZM31.1747 15.1834C32.7536 16.7693 33.542 18.8914 33.5397 21.5497C33.5374 24.208 32.8499 26.3313 31.4772 27.9194C29.9555 29.6656 27.1551 30.5376 23.0759 30.5353H16.7716V12.8047H23.1034C26.9053 12.8047 29.5957 13.5976 31.1747 15.1834ZM129.542 54.1784L134.626 41.3737H149.301L142.337 21.9484L151.047 0L176 66H157.599L153.337 54.1784H129.542Z" fill="#38D51E"/>
</svg>
