<svg width="30" height="29" viewBox="0 0 30 29" fill="none" xmlns="http://www.w3.org/2000/svg">
<path d="M5 7.5C5.66304 7.5 6.29893 7.23661 6.76777 6.76777C7.23661 6.29893 7.5 5.66304 7.5 5C7.5 4.33696 7.23661 3.70107 6.76777 3.23223C6.29893 2.76339 5.66304 2.5 5 2.5C4.33696 2.5 3.70107 2.76339 3.23223 3.23223C2.76339 3.70107 2.5 4.33696 2.5 5C2.5 5.66304 2.76339 6.29893 3.23223 6.76777C3.70107 7.23661 4.33696 7.5 5 7.5ZM6.25 26.25C7.24456 26.25 8.19839 25.8549 8.90165 25.1517C9.60491 24.4484 10 23.4946 10 22.5C10 21.5054 9.60491 20.5516 8.90165 19.8483C8.19839 19.1451 7.24456 18.75 6.25 18.75C5.25544 18.75 4.30161 19.1451 3.59835 19.8483C2.89509 20.5516 2.5 21.5054 2.5 22.5C2.5 23.4946 2.89509 24.4484 3.59835 25.1517C4.30161 25.8549 5.25544 26.25 6.25 26.25ZM23.75 27.5C24.7446 27.5 25.6984 27.1049 26.4017 26.4017C27.1049 25.6984 27.5 24.7446 27.5 23.75C27.5 22.7554 27.1049 21.8016 26.4017 21.0983C25.6984 20.3951 24.7446 20 23.75 20C22.7554 20 21.8016 20.3951 21.0983 21.0983C20.3951 21.8016 20 22.7554 20 23.75C20 24.7446 20.3951 25.6984 21.0983 26.4017C21.8016 27.1049 22.7554 27.5 23.75 27.5ZM13.75 17.5C15.0761 17.5 16.3479 16.9732 17.2855 16.0355C18.2232 15.0979 18.75 13.8261 18.75 12.5C18.75 11.1739 18.2232 9.90215 17.2855 8.96447C16.3479 8.02678 15.0761 7.5 13.75 7.5C12.4239 7.5 11.1521 8.02678 10.2145 8.96447C9.27678 9.90215 8.75 11.1739 8.75 12.5C8.75 13.8261 9.27678 15.0979 10.2145 16.0355C11.1521 16.9732 12.4239 17.5 13.75 17.5ZM21.25 7.5C21.913 7.5 22.5489 7.23661 23.0178 6.76777C23.4866 6.29893 23.75 5.66304 23.75 5C23.75 4.33696 23.4866 3.70107 23.0178 3.23223C22.5489 2.76339 21.913 2.5 21.25 2.5C20.587 2.5 19.9511 2.76339 19.4822 3.23223C19.0134 3.70107 18.75 4.33696 18.75 5C18.75 5.66304 19.0134 6.29893 19.4822 6.76777C19.9511 7.23661 20.587 7.5 21.25 7.5Z" stroke="#38D51E" stroke-width="2.5" stroke-linecap="round" stroke-linejoin="round"/>
<path d="M6.875 6.875L9.375 9.375M18.75 7.5L17.5 8.75M21.25 20.9375L17.5 16.25M8.75 19.375L11.25 16.875" stroke="#38D51E" stroke-width="2.5" stroke-linecap="round" stroke-linejoin="round"/>
</svg>
